<?xml version="1.0" standalone="no"?>
<!DOCTYPE svg PUBLIC "-//W3C//DTD SVG 20010904//EN"
 "http://www.w3.org/TR/2001/REC-SVG-20010904/DTD/svg10.dtd">
<svg version="1.0" xmlns="http://www.w3.org/2000/svg"
 width="700.000000pt" height="700.000000pt" viewBox="0 0 700.000000 700.000000"
 preserveAspectRatio="xMidYMid meet">
<metadata>
Created by potrace 1.11, written by Peter Selinger 2001-2013
</metadata>
<g transform="translate(0.000000,700.000000) scale(0.100000,-0.100000)"
fill="#000000" stroke="none">
<path d="M3377 6854 c-1 -1 -58 -4 -127 -8 -69 -3 -136 -8 -150 -10 -14 -3
-47 -7 -75 -11 -45 -5 -186 -28 -240 -39 -93 -18 -303 -77 -409 -113 -343
-119 -641 -276 -926 -487 -52 -39 -106 -80 -120 -92 -14 -12 -47 -41 -75 -64
-311 -263 -609 -644 -804 -1028 -139 -275 -260 -624 -305 -882 -19 -114 -32
-191 -41 -265 -24 -179 -24 -653 0 -770 2 -11 7 -42 10 -70 8 -68 24 -171 30
-187 2 -7 6 -29 9 -48 8 -57 63 -263 100 -373 199 -603 592 -1173 1071 -1557
44 -36 82 -67 85 -71 12 -15 295 -202 380 -251 106 -60 251 -132 350 -173 36
-14 79 -33 96 -40 17 -8 85 -32 152 -55 270 -90 526 -142 827 -169 98 -8 460
-7 540 3 28 3 75 8 105 11 616 67 1241 329 1734 729 150 121 336 300 437 421
19 22 36 42 39 45 4 4 96 121 137 175 5 6 36 51 69 100 331 489 531 1068 571
1655 12 172 6 503 -11 610 -2 14 -7 48 -10 75 -7 55 -9 70 -32 195 -81 447
-276 904 -558 1310 -108 155 -209 273 -376 440 -276 277 -514 451 -855 625
-300 153 -670 278 -950 319 -22 4 -65 10 -95 15 -119 20 -279 32 -458 35 -68
1 -124 1 -125 0z m358 -268 c116 -12 146 -16 245 -32 246 -41 439 -95 671
-189 120 -49 326 -149 350 -171 9 -8 18 -12 20 -10 7 7 317 -203 404 -274 605
-492 1001 -1167 1130 -1925 44 -259 53 -634 20 -885 -13 -101 -16 -125 -26
-173 -5 -29 -12 -68 -15 -87 -11 -69 -66 -267 -106 -385 -153 -449 -408 -856
-748 -1195 -316 -315 -670 -547 -1078 -707 -141 -55 -380 -126 -492 -146 -121
-22 -154 -28 -215 -36 -239 -34 -599 -36 -820 -5 -602 82 -1125 308 -1585 683
-119 96 -335 308 -405 396 -22 27 -44 55 -50 61 -5 6 -19 23 -30 38 -11 15
-28 37 -39 49 -31 37 -181 267 -228 352 -55 98 -131 257 -165 345 -14 36 -31
79 -38 95 -56 130 -146 492 -161 645 -3 30 -7 61 -9 68 -4 10 -16 149 -19 217
-1 20 6 20 1339 22 l1340 3 32 -68 c41 -87 83 -136 157 -184 155 -100 349
-103 499 -8 67 42 72 47 122 113 138 182 121 438 -40 599 -224 224 -601 162
-737 -122 -18 -36 -33 -67 -34 -68 -5 -7 -2663 -4 -2674 3 -5 3 -8 16 -5 28 2
12 7 60 10 107 3 47 7 96 9 110 3 14 7 43 10 65 59 407 201 804 416 1165 205
344 507 675 825 907 340 247 713 421 1110 518 77 18 160 37 185 40 25 4 54 9
65 12 11 2 43 6 70 9 28 3 56 7 63 9 7 3 61 8 120 11 59 4 108 7 109 9 6 4
336 -3 398 -9z"/>
<path d="M3428 6061 l-33 -29 -1 -879 c-1 -742 1 -883 13 -909 33 -73 132 -78
174 -10 18 30 19 64 19 903 0 655 -3 879 -12 898 -27 59 -109 72 -160 26z"/>
<path d="M2678 5414 c-49 -26 -46 -62 17 -214 31 -74 63 -149 71 -167 8 -17
14 -34 14 -37 0 -3 11 -29 24 -58 13 -29 64 -150 112 -269 49 -118 96 -225
104 -238 36 -54 134 -21 133 45 0 16 -54 160 -121 319 -66 160 -148 358 -182
440 -34 83 -70 158 -79 168 -23 24 -61 29 -93 11z"/>
<path d="M4232 5412 c-12 -11 -34 -48 -48 -83 -14 -35 -31 -77 -38 -94 -14
-30 -176 -421 -248 -595 -21 -52 -43 -103 -48 -112 -28 -50 1 -113 56 -124 54
-10 72 19 194 316 62 151 118 289 125 305 82 191 126 305 127 328 2 58 -77 96
-120 59z"/>
<path d="M5244 5345 c-16 -6 -290 -273 -609 -593 -713 -713 -656 -654 -660
-688 -9 -76 64 -137 135 -112 14 5 306 289 648 631 l622 623 0 41 c0 74 -71
126 -136 98z"/>
<path d="M1648 5327 c-31 -29 -43 -74 -29 -110 15 -38 1243 -1263 1272 -1269
43 -8 89 11 109 45 24 38 25 68 6 105 -8 15 -291 303 -629 640 l-613 612 -46
0 c-33 0 -52 -6 -70 -23z"/>
<path d="M1583 4315 c-37 -16 -51 -53 -37 -94 11 -30 44 -48 214 -117 63 -25
129 -52 145 -59 17 -7 151 -63 299 -125 300 -124 320 -128 349 -68 13 26 13
37 3 62 -11 28 -31 39 -187 105 -96 40 -187 79 -204 86 -16 7 -59 25 -95 39
-36 15 -74 31 -85 36 -53 24 -342 141 -355 145 -9 1 -30 -3 -47 -10z"/>
<path d="M5325 4310 c-22 -10 -222 -93 -445 -184 -223 -92 -413 -173 -423
-181 -10 -7 -20 -29 -24 -48 -4 -29 -1 -40 20 -61 15 -14 36 -26 49 -26 13 0
226 84 475 188 480 199 488 203 476 264 -11 56 -65 77 -128 48z"/>
<path d="M4322 3570 c-38 -4 -59 -12 -77 -30 -44 -45 -38 -118 13 -155 26 -19
47 -19 894 -20 477 0 882 4 898 8 34 9 70 58 70 95 0 36 -27 78 -58 91 -22 9
-238 13 -858 14 -456 1 -853 0 -882 -3z"/>
<path d="M2303 3058 c-92 -38 -229 -94 -303 -125 -74 -30 -148 -61 -165 -68
-16 -7 -81 -34 -144 -60 -63 -27 -123 -57 -133 -67 -45 -45 2 -137 64 -124 16
3 132 48 257 100 124 52 321 134 436 181 116 48 217 94 226 102 25 22 28 59 8
93 -10 16 -22 31 -26 31 -40 7 -74 -3 -220 -63z"/>
<path d="M4474 3116 c-44 -19 -59 -71 -31 -107 18 -23 33 -30 500 -223 400
-165 431 -176 461 -166 53 17 68 82 28 122 -9 10 -73 41 -142 69 -69 28 -138
56 -155 63 -16 7 -55 23 -85 36 -30 12 -64 26 -75 31 -88 38 -459 189 -464
189 -3 -1 -20 -7 -37 -14z"/>
<path d="M2828 2943 c-45 -43 -1092 -1089 -1176 -1176 -40 -41 -49 -84 -27
-126 26 -52 90 -71 141 -43 11 6 295 287 633 625 603 604 613 615 617 658 5
47 -10 75 -53 98 -45 23 -81 14 -135 -36z"/>
<path d="M4010 2963 c-32 -31 -44 -71 -30 -108 15 -39 1246 -1265 1273 -1266
55 -4 74 2 100 31 20 23 27 41 27 72 l0 41 -612 614 c-337 338 -625 621 -640
629 -42 22 -84 18 -118 -13z"/>
<path d="M3442 2734 c-51 -35 -49 -6 -48 -944 1 -940 -1 -902 51 -930 28 -15
76 -16 103 -1 54 29 52 -1 52 940 0 653 -3 877 -12 896 -23 50 -101 71 -146
39z"/>
<path d="M3055 2530 c-12 -4 -27 -15 -35 -24 -12 -15 -105 -235 -315 -748 -36
-86 -65 -166 -65 -178 0 -52 80 -88 122 -56 21 15 16 5 188 421 73 176 138
334 145 350 67 158 71 177 42 209 -26 29 -54 38 -82 26z"/>
<path d="M3884 2527 c-28 -15 -43 -39 -44 -65 0 -20 132 -353 220 -554 5 -13
41 -99 80 -193 39 -93 80 -178 91 -187 46 -38 119 -4 119 55 0 34 -360 911
-382 933 -18 18 -61 24 -84 11z"/>
</g>
</svg>
